# AST/ASF file generated using VICON BodyLanguage
# -----------------------------------------------
:version 1.10
:name VICON
:units
  mass 1.0
  length 0.45
  angle deg
:documentation
   .ast/.asf automatically generated from VICON data using
   VICON BodyBuilder and BodyLanguage model FoxedUp or BRILLIANT.MOD
:root
   order TX TY TZ RX RY RZ
   axis XYZ
   position 0 0 0  
   orientation 0 0 0 
:bonedata
  begin
     id 1 
     name lhipjoint
     direction 0.597014 -0.743513 0.301268 
     length 2.48253 
     axis 0 0 0  XYZ
  end
  begin
     id 2 
     name lfemur
     direction 0.34202 -0.939693 0  
     length 7.51389  
     axis 0 0 20  XYZ
    dof rx ry rz
    limits (-160.0 20.0)
           (-70.0 70.0)
           (-60.0 70.0)
  end
  begin
     id 3 
     name ltibia
     direction 0.34202 -0.939693 0   
     length 7.54147   
     axis 0 0 20   XYZ
    dof rx
    limits (-10.0 170.0)
  end
  begin
     id 4 
     name lfoot
     direction 0.10378 -0.285133 0.952853   
     length 2.2132   
     axis -90 7.62852e-016 20   XYZ
    dof rx rz
    limits (-45.0 90.0)
           (-70.0 20.0)
  end
  begin
     id 5 
     name ltoes
     direction 1.5354e-011 -4.2171e-011 1   
     length 1.10362   
     axis -90 7.62852e-016 20   XYZ
    dof rx
    limits (-90.0 20.0)
  end
  begin
     id 6 
     name rhipjoint
     direction -0.591912 -0.747009 0.302685   
     length 2.47092  
     axis 0 0 0  XYZ 
  end
  begin
     id 7 
     name rfemur
     direction -0.34202 -0.939693 0   
     length 7.69991   
     axis 0 0 -20   XYZ
    dof rx ry rz
    limits (-160.0 20.0)
           (-70.0 70.0)
           (-70.0 60.0)
  end
  begin
     id 8 
     name rtibia
     direction -0.34202 -0.939693 0   
     length 7.40774   
     axis 0 0 -20   XYZ
    dof rx
    limits (-10.0 170.0)
 end
 begin
     id 9 
     name rfoot
     direction -0.0916245 -0.251736 0.963449   
     length 2.08235  
     axis -90 -7.62852e-016 -20   XYZ
    dof rx rz
    limits (-45.0 90.0)
           (-20.0 70.0)
  end
  begin
     id 10 
     name rtoes
     direction -1.53527e-011 -4.21878e-011 1   
     length 1.04369   
     axis -90 -7.62852e-016 -20   XYZ
    dof rx
    limits (-90.0 20.0)
  end
  begin
     id 11 
     name lowerback
     direction -0.0122523 0.991496 -0.12956   
     length 2.10814   
     axis 0 0 0   XYZ
    dof rx ry rz
    limits (-20.0 45.0)
           (-30.0 30.0)
           (-30.0 30.0)
  end
  begin
     id 12 
     name upperback
     direction 0.012378 0.999784 -0.0167122   
     length 2.11728   
     axis 0 0 0   XYZ
    dof rx ry rz
    limits (-20.0 45.0)
           (-30.0 30.0)
           (-30.0 30.0)
  end
  begin
     id 13 
     name thorax
     direction 0.0187236 0.998893 0.0431542   
     length 2.15267   
     axis 0 0 0   XYZ
    dof rx ry rz
    limits (-20.0 45.0)
           (-30.0 30.0)
           (-30.0 30.0)
  end
  begin
     id 14 
     name lowerneck
     direction 0.0165467 0.987304 0.157979   
     length 1.72129   
     axis 0 0 0   XYZ
    dof rx ry rz
    limits (-20.0 45.0)
           (-30.0 30.0)
           (-30.0 30.0)
  end
  begin
     id 15 
     name upperneck
     direction -0.0560236 0.986819 -0.151818   
     length 1.75382   
     axis 0 0 0   XYZ
    dof rx ry rz
    limits (-20.0 45.0)
           (-30.0 30.0)
           (-30.0 30.0)
  end
  begin
     id 16
     name head
     direction -0.0173602 0.99745 -0.0692312  
     length 1.76328  
     axis 0 0 0   XYZ
    dof rx ry rz
    limits (-20.0 45.0)
           (-30.0 30.0)
           (-30.0 30.0)
  end
  begin
     id 17 
     name lclavicle
     direction 0.957734 0.271724 -0.094399  
     length 3.5782  
     axis 0 0 0   XYZ
    dof ry rz
    limits (-20.0 10.0)
           (0.0 20.0)
  end
  begin
     id 18 
     name lhumerus
     direction 1 -4.48963e-011 1.21581e-027   
     length 5.25525   
     axis 180 -30 -90   XYZ
    dof rx ry rz
    limits (-60.0 90.0)
           (-90.0 90.0)
           (-90.0 90.0)
  end
  begin
     id 19
     name lradius
     direction 1 -4.48975e-011 3.71216e-028   
     length 3.35106   
     axis 180 -30 -90   XYZ
    dof rx
    limits (-10.0 170.0)
  end
  begin
     id 20
     name lwrist
     direction 1 -4.48957e-011 4.76535e-027   
     length 1.67553   
     axis -3.27501e-015 90 90   XYZ
    dof ry
    limits (-180.0 0.0)
 end
  begin
     id 21 
     name lhand
     direction 1 -4.49008e-011 9.52727e-027   
     length 0.574153   
     axis -6.08097e-015 90 90   XYZ
    dof rx rz
    limits (-90.0 90.0)
           (-45.0 45.0)
  end
  begin
     id 22 
     name lfingers
     direction 1 -4.48996e-011 1.90562e-026   
     length 0.462897   
     axis -1.21618e-014 90 90   XYZ
    dof rx
    limits (0.0 90.0)
  end
  begin
     id 23
     name lthumb
     direction 0.707107 -6.34908e-011 0.707107   
     length 0.66463   
     axis -90 45 -1.62303e-014   XYZ
    dof rx rz
    limits (-45.0 45.0)
           (-45.0 45.0)
  end
  begin
     id 24 
     name rclavicle
     direction -0.950439 0.29623 -0.0944132   
     length 3.45861  
     axis 0 0 0   XYZ 
    dof ry rz
    limits (-10.0 20.0)
           (-20.0 0.0)
  end
  begin
     id 25 
     name rhumerus
     direction -1 -4.48986e-011 1.25473e-027  
     length 5.33104   
     axis 180 30 90   XYZ
    dof rx ry rz
    limits (-90.0 60.0)
           (-90.0 90.0)
           (-90.0 90.0)
  end
  begin
     id 26 
     name rradius
     direction -1 -4.4894e-011 1.66273e-027   
     length 3.39883   
     axis 180 30 90   XYZ
    dof rx
    limits (-10.0 170.0)
  end
  begin
     id 27 
     name rwrist
     direction -1 -4.48946e-011 4.76572e-027   
     length 1.69941   
     axis -3.27501e-015 -90 -90   XYZ
    dof ry
    limits (-180.0 0.0)
  end
  begin
     id 28
     name rhand
     direction -1 -4.49028e-011 9.52595e-027   
     length 0.913886   
     axis -6.08097e-015 -90 -90   XYZ
    dof rx rz
    limits (-90.0 90.0)
           (-45.0 45.0)
  end
  begin
     id 29
     name rfingers
     direction -1 -4.48945e-011 1.9063e-026   
     length 0.736798   
     axis -1.21618e-014 -90 -90   XYZ
    dof rx
    limits (0.0 90.0)
  end
  begin
     id 30
     name rthumb
     direction -0.707107 -6.34966e-011 0.707107   
     length 1.0579   
     axis -90 -45 1.62303e-014   XYZ
    dof rx rz
    limits (-45.0 45.0)
           (-45.0 45.0)
  end
:hierarchy
  begin
    root lhipjoint rhipjoint lowerback
    lhipjoint lfemur
    lfemur ltibia
    ltibia lfoot
    lfoot ltoes
    rhipjoint rfemur
    rfemur rtibia
    rtibia rfoot
    rfoot rtoes
    lowerback upperback
    upperback thorax
    thorax lowerneck lclavicle rclavicle
    lowerneck upperneck
    upperneck head
    lclavicle lhumerus
    lhumerus lradius
    lradius lwrist
    lwrist lhand lthumb
    lhand lfingers
    rclavicle rhumerus
    rhumerus rradius
    rradius rwrist
    rwrist rhand rthumb
    rhand rfingers
  end

#!OML:ASF F:\VICON\USERDATA\INSTALL\rory3\rory3.ASF
:FULLY-SPECIFIED
:DEGREES
1015
root -4.98285 17.3186 37.1964 178.038 -35.2602 -184.89
lowerback 14.1922 1.75206 1.35276
upperback 3.19666 2.29379 0.728666
thorax -4.54744 1.00714 -0.39812
lowerneck -7.68105 13.5369 8.68652
upperneck 13.1847 19.0022 -12.3113
head 7.3311 8.66531 -3.41737
rclavicle 2.14687e-014 -1.51076e-014
rhumerus -28.5034 -7.54125 -83.2024
rradius 47.3385
rwrist 5.56357
rhand -11.2486 8.99251
rfingers 7.12502
rthumb 14.781 -20.4604
lclavicle 2.14687e-014 -1.51076e-014
lhumerus -26.5015 -6.31962 90.6938
lradius 49.6961
lwrist -2.1388
lhand -10.6671 382.589
lfingers 7.12502
lthumb 15.3412 412
rfemur -5.68777 -3.8532 2.74588
rtibia 49.7338
rfoot -12.5581 -9.67443
rtoes -6.58798
lfemur -11.5297 -7.93527 -22.4512
ltibia 36.8102
lfoot -14.056 -12.1404
ltoes -9.08443
1016
root -4.9717 17.3103 37.2047 178.168 -34.655 -184.896
lowerback 13.9532 1.81981 1.36019
upperback 3.17459 2.38462 0.707153
thorax -4.43796 1.0551 -0.433959
lowerneck -8.03715 13.7208 8.35378
upperneck 13.3094 19.2772 -12.202
head 7.41871 8.76488 -3.27337
rclavicle 2.127e-014 -3.73715e-014
rhumerus -28.7605 -7.20958 -82.874
rradius 47.3223
rwrist 4.4193
rhand -10.6199 8.17836
rfingers 7.12502
rthumb 15.3866 -21.2291
lclavicle 2.127e-014 -3.73715e-014
lhumerus -26.6548 -6.2537 90.9348
lradius 49.458
lwrist -2.00161
lhand -11.1213 383.193
lfingers 7.12502
lthumb 14.9036 412.637
rfemur -5.1302 -3.74884 2.80539
rtibia 48.6222
rfoot -11.8119 -9.17639
rtoes -5.67587
lfemur -11.7416 -7.7938 -22.43
ltibia 36.9814
lfoot -14.1486 -11.7753
ltoes -9.26981
1017
root -4.94734 17.3007 37.1956 178.277 -34.0751 -184.868
lowerback 13.8889 1.94303 1.31407
upperback 2.95454 2.55907 0.652619
thorax -4.63155 1.14667 -0.498066
lowerneck -8.20908 13.7612 8.20996
upperneck 13.682 19.3344 -11.9333
head 7.53217 8.78001 -3.14476
rclavicle 3.94588e-014 -8.74653e-015
rhumerus -29.0343 -7.05537 -82.5215
rradius 46.9218
rwrist 3.41193
rhand -10.8315 7.84056
rfingers 7.12502
rthumb 15.1828 -21.5824
lclavicle 3.94588e-014 -8.74653e-015
lhumerus -27.1353 -6.6646 91.2095
lradius 49.1708
lwrist -2.099
lhand -11.0759 383.091
lfingers 7.12502
lthumb 14.9473 412.532
rfemur -4.50091 -3.41893 3.08557
rtibia 47.1204
rfoot -11.6072 -9.03892
rtoes -8.23334
lfemur -11.9278 -7.61762 -22.2692
ltibia 37.1971
lfoot -14.2282 -11.5146
ltoes -8.36389
1018
root -4.91237 17.2924 37.175 178 -33.7759 -184.599
lowerback 13.5012 1.88149 1.31448
upperback 3.19815 2.4577 0.75668
thorax -4.16997 1.09618 -0.354188
lowerneck -8.08494 13.6666 8.27939
upperneck 13.31 19.2294 -12.3675
head 7.43298 8.71834 -3.3183
rclavicle -4.67144e-015 -1.59028e-014
rhumerus -28.4434 -6.50147 -82.3142
rradius 46.2704
rwrist 2.40835
rhand -11.8787 7.92245
rfingers 7.12502
rthumb 14.1739 -21.574
lclavicle -4.67144e-015 -1.59028e-014
lhumerus -26.9942 -6.91215 91.4014
lradius 48.913
lwrist -2.23944
lhand -10.7893 382.664
lfingers 7.12502
lthumb 15.2235 412.084
rfemur -3.42247 -2.97077 3.79588
rtibia 45.3933
rfoot -12.0861 -9.77026
rtoes -13.5523
lfemur -11.902 -7.38995 -21.8617
ltibia 37.4832
lfoot -14.4585 -11.5043
ltoes -9.1505
1019
root -4.8812 17.2831 37.1728 177.939 -33.1115 -184.454
lowerback 13.6626 1.81436 1.53048
upperback 2.98254 2.41219 0.631315
thorax -4.47039 1.07294 -0.608657
lowerneck -8.12518 13.5446 8.23954
upperneck 13.5223 19.0495 -12.1884
head 7.4662 8.63159 -3.27714
rclavicle -6.91771e-014 -7.95139e-016
rhumerus -28.4911 -5.9248 -82.3428
rradius 45.8518
rwrist 1.60969
rhand -12.2552 7.54393
rfingers 7.12502
rthumb 13.8111 -21.9776
lclavicle -6.91771e-014 -7.95139e-016
lhumerus -27.4246 -7.22864 91.4579
lradius 48.6909
lwrist -2.50281
lhand -10.9642 382.681
lfingers 7.12502
lthumb 15.055 412.113
rfemur -2.70956 -2.71911 4.2471
rtibia 43.655
rfoot -13.8716 -10.6218
rtoes -17.216
lfemur -12.0504 -7.51268 -21.66
ltibia 37.7909
lfoot -14.7904 -10.796
ltoes -9.91674
1020
root -4.83826 17.2726 37.167 177.954 -32.3495 -184.306
lowerback 13.1382 1.81145 1.04144
upperback 3.11462 2.34082 0.970047
thorax -4.08184 1.04497 0.050894
lowerneck -8.36139 13.2824 7.72476
upperneck 13.5983 18.7488 -12.2351
head 7.45541 8.43864 -3.24756
rclavicle -4.99943e-014 1.11319e-014
rhumerus -27.9975 -4.67403 -82.0187
rradius 45.7086
rwrist 1.16091
rhand -14.5828 7.70895
rfingers 7.12502
rthumb 11.5671 -21.9518
lclavicle -4.99943e-014 1.11319e-014
lhumerus -27.3758 -7.09062 92.0353
lradius 48.525
lwrist -2.69551
lhand -11.1978 382.776
lfingers 7.12502
lthumb 14.8299 412.225
rfemur -2.12513 -2.39089 4.754
rtibia 42.0028
rfoot -15.2615 -11.6406
rtoes -16.9309
lfemur -12.2926 -7.71548 -21.4306
ltibia 38.1344
lfoot -15.2721 -9.86477
ltoes -10.9718
1021
root -4.79835 17.2703 37.1471 178.065 -31.1986 -183.93
lowerback 12.9362 1.77625 1.40848
upperback 2.71407 2.36814 0.731999
thorax -4.36564 1.0651 -0.410214
lowerneck -8.59001 12.776 7.59021
upperneck 14.1569 17.9527 -11.3163
head 7.48685 8.09731 -3.02992
rclavicle -3.57812e-015 7.95139e-015
rhumerus -28.2543 -3.92822 -82.623
rradius 45.7862
rwrist 2.10661
rhand -13.8099 7.59024
rfingers 7.12502
rthumb 12.3124 -22.0273
lclavicle -3.57812e-015 7.95139e-015
lhumerus -28.1121 -7.59008 91.8654
lradius 48.6967
lwrist -2.89946
lhand -11.0882 382.532
lfingers 7.12502
lthumb 14.9355 411.973
rfemur -1.92718 -1.87023 5.53563
rtibia 40.5236
rfoot -15.5818 -12.8628
rtoes -20.0247
lfemur -12.6503 -7.60828 -20.908
ltibia 38.4315
lfoot -15.6727 -8.8457
ltoes -12.2549
1022
root -4.73256 17.2643 37.1373 177.794 -30.6141 -183.46
lowerback 12.8298 1.50939 1.58254
upperback 2.67987 2.0356 0.685302
thorax -4.33996 0.899703 -0.500487
lowerneck -8.81567 12.1265 7.48568
upperneck 14.3411 16.974 -10.7327
head 7.42318 7.66172 -2.94784
rclavicle 3.8266e-014 -8.74653e-015
rhumerus -27.7397 -2.68612 -83.4505
rradius 45.983
rwrist 3.89374
rhand -13.2972 6.70707
rfingers 7.12502
rthumb 12.8067 -22.8801
lclavicle 3.8266e-014 -8.74653e-015
lhumerus -28.1885 -7.7822 91.787
lradius 48.8459
lwrist -3.23974
lhand -11.1933 382.81
lfingers 7.12502
lthumb 14.8343 412.259
rfemur -1.36918 -1.5639 6.49457
rtibia 39.2335
rfoot -16.374 -13.9338
rtoes -19.9846
lfemur -12.7665 -7.69873 -20.2572
ltibia 38.6582
lfoot -15.7542 -8.29316
ltoes -12.9788
1023
root -4.6693 17.266 37.1131 177.637 -29.5538 -182.955
lowerback 12.3713 1.34115 1.60288
upperback 2.65929 1.81417 0.75288
thorax -4.11552 0.794752 -0.395242
lowerneck -8.91787 11.3925 7.64384
upperneck 14.7734 15.9094 -10.4543
head 7.46697 7.16437 -3.01124
rclavicle -3.30976e-014 -1.90833e-014
rhumerus -26.9946 -0.817795 -84.4563
rradius 46.3082
rwrist 5.75087
rhand -12.0643 5.5343
rfingers 7.12502
rthumb 13.995 -23.9746
lclavicle -3.30976e-014 -1.90833e-014
lhumerus -28.2103 -7.24299 91.8247
lradius 49.1459
lwrist -3.60341
lhand -11.4343 383.241
lfingers 7.12502
lthumb 14.6021 412.707
rfemur -1.2371 -0.984707 7.47011
rtibia 38.0702
rfoot -17.1595 -14.6264
rtoes -18.9988
lfemur -12.8678 -7.49091 -19.5092
ltibia 38.8923
lfoot -16.0653 -7.59244
ltoes -13.8185
1024
root -4.59768 17.2735 37.0924 177.536 -28.3242 -182.563
lowerback 11.9559 1.28648 1.45484
upperback 2.68788 1.71801 0.816441
thorax -3.86576 0.75177 -0.221332
lowerneck -10.2045 10.457 6.88052
upperneck 16.0642 14.5577 -9.23194
head 7.82801 6.49009 -2.6017
rclavicle -2.29596e-014 5.56597e-015
rhumerus -26.1487 1.69378 -85.7704
rradius 47.2182
rwrist 6.41552
rhand -11.4957 6.39297
rfingers 7.12502
rthumb 14.5429 -23.0773
lclavicle -2.29596e-014 5.56597e-015
lhumerus -27.9944 -6.50044 91.9807
lradius 49.5115
lwrist -3.54369
lhand -12.2279 383.601
lfingers 7.12502
lthumb 13.8374 413.121
rfemur -1.39934 -0.453224 8.28693
rtibia 37.1868
rfoot -18.162 -14.9735
rtoes -16.4716
lfemur -12.8379 -7.53046 -18.8653
ltibia 38.9562
lfoot -16.3473 -6.55923
ltoes -14.7862
1025
root -4.50345 17.2437 37.0662 177.088 -27.523 -182.204
lowerback 11.7787 1.02819 1.03435
upperback 2.83164 1.31191 0.916743
thorax -3.636 0.551516 0.184769
lowerneck -11.3553 9.42307 6.06609
upperneck 17.2541 13.0382 -7.85609
head 8.13809 5.76944 -2.16333
rclavicle 3.28989e-014 1.59028e-014
rhumerus -25.1255 4.99717 -87.5063
rradius 48.5085
rwrist 6.47357
rhand -10.2662 8.16889
rfingers 7.12502
rthumb 15.7272 -21.2121
lclavicle 3.28989e-014 1.59028e-014
lhumerus -27.71 -5.48114 91.9694
lradius 50.009
lwrist -3.72178
lhand -13.0492 384.04
lfingers 7.12502
lthumb 13.0457 413.612
rfemur -0.832569 -0.504464 9.14074
rtibia 36.4789
rfoot -20.0934 -15.109
rtoes -12.0744
lfemur -12.5603 -7.72277 -18.197
ltibia 39.1556
lfoot -16.6323 -5.68546
ltoes -15.7684
